<svg xmlns="http://www.w3.org/2000/svg" viewBox="0 0 32 32" role="img" aria-label="Sagrada Familia de Barcelona">
  <g stroke="#14394b" stroke-linecap="round" stroke-linejoin="round">
    <path d="M4.1 27.4V14.2h5.2v13.2m2.1 0V9.2h5v18.2m2 0V11.2h4.6v16.2m2.1 0V14.2h4.8v13.2" fill="#fff3d6" stroke-width="1.7"/>
    <path d="M5.3 14.2 6.7 8l1.4 6.2m4.2-5 1.6-6.4 1.6 6.4m3.8 2 1.4-5.7 1.4 5.7m4.1 3 1.2-4.9 1.2 4.9" fill="#11c7dc" stroke-width="1.55"/>
    <path d="M6.7 8V5.8m7.2-3V1.4m6.8 4.1V3.4m6.7 5.9V7.5" fill="none" stroke-width="1.3"/>
    <path d="M6.3 18.1h1.7m-1.7 3.3h1.7m6.1-7.8h1.5m-1.5 3.4h1.5m4.9-.8h1.4m-1.4 3.4h1.4m4.3-1.5h1.5m-1.5 3.3h1.5" fill="none" stroke-width="1.15"/>
    <path d="M12.5 27.4v-4.5c0-2.3 1.5-4 3.5-4s3.5 1.7 3.5 4v4.5" fill="#11c7dc" stroke-width="1.35"/>
    <path d="M2.9 27.6h26.2" fill="none" stroke-width="1.5"/>
    <circle cx="13.9" cy="1.4" r=".75" fill="#fff3d6" stroke-width=".9"/>
  </g>
</svg>
