<svg xmlns="http://www.w3.org/2000/svg" viewBox="0 0 40 40" role="img" aria-label="Puerta de Brandeburgo">
  <g stroke="#14394b" stroke-linecap="round" stroke-linejoin="round">
    <path d="M3.8 35.5h32.4" fill="none" stroke="#fff" stroke-width="4"/>
    <path d="M3.8 35.5h32.4" fill="none" stroke-width="1.35"/>

    <path d="M5.1 17.1h29.8v17.6H5.1z" fill="#fff3d6" stroke-width="1.35"/>
    <path d="M4.3 13.2h31.4l-2.8-5H7.1z" fill="#d8e4e7" stroke-width="1.3"/>
    <path d="M5.5 16.8h29M6.8 11.1h26.4" fill="none" stroke="#ff6b6b" stroke-width="1.45"/>

    <path d="M8 18.3v15.8M12.8 18.3v15.8M17.6 18.3v15.8M22.4 18.3v15.8M27.2 18.3v15.8M32 18.3v15.8" fill="none" stroke-width="1.45"/>
    <path d="M8 21h24M8 30.2h24" fill="none" stroke="#11c7dc" stroke-width="1"/>
    <path d="M6.4 34.7h27.2" fill="none" stroke-width="1.5"/>

    <path d="M15.2 8c1.1-1.2 2.2-2 3.5-2.3l1.3-2 1.3 2c1.3.3 2.4 1.1 3.5 2" fill="none" stroke-width="1.15"/>
    <path d="M16.3 6.8 18.6 8l1.4-1.1L21.4 8l2.3-1.2" fill="none" stroke-width="1"/>
    <path d="M18.5 4.2h3" fill="none" stroke="#11c7dc" stroke-width="1.2"/>
    <path d="M20 3.7V2.3" fill="none" stroke-width="1"/>
    <circle cx="20" cy="2" r=".7" fill="#ff6b6b" stroke-width=".8"/>
  </g>
</svg>
