<svg xmlns="http://www.w3.org/2000/svg" viewBox="0 0 32 32" role="img" aria-label="Atomium de Bruselas">
  <g stroke="#14394b" stroke-linecap="round" stroke-linejoin="round">
    <path d="M8 7.2 16 15m8-7.8-8 7.8m0 0-7.2 8m7.2-8 7.2 8M8 7.2h16M8.8 23h14.4M8 7.2l.8 15.8M24 7.2 23.2 23" fill="none" stroke-width="1.7"/>
    <path d="M11.7 11.2 20.3 18.8M20.3 11.2 11.7 18.8" fill="none" stroke="#11c7dc" stroke-width="1.3"/>
    <g stroke-width="1.45">
      <circle cx="8" cy="7.2" r="3" fill="#fff3d6"/>
      <circle cx="24" cy="7.2" r="3" fill="#11c7dc"/>
      <circle cx="16" cy="15" r="3.2" fill="#11c7dc"/>
      <circle cx="8.8" cy="23" r="2.8" fill="#11c7dc"/>
      <circle cx="23.2" cy="23" r="2.8" fill="#fff3d6"/>
      <circle cx="16" cy="5.3" r="2.35" fill="#fff3d6"/>
      <circle cx="5.2" cy="15" r="2.35" fill="#fff3d6"/>
      <circle cx="26.8" cy="15" r="2.35" fill="#fff3d6"/>
      <circle cx="16" cy="26.6" r="2.35" fill="#fff3d6"/>
    </g>
    <path d="M7.1 6.4c.5-.4 1-.6 1.6-.6m14.4.6c.5-.4 1-.6 1.6-.6M15 14.1c.5-.4 1-.6 1.7-.6" fill="none" stroke="#fff3d6" stroke-width=".9"/>
  </g>
</svg>
