<svg xmlns="http://www.w3.org/2000/svg" width="256" height="256" viewBox="0 0 128 128" role="img" aria-label="Frauenkirche de Múnich">
  <g stroke="#14394b" stroke-width="2.25" stroke-linecap="round" stroke-linejoin="round">
    <path d="M24 105V45h22v60M82 105V45h22v60" fill="#fff3d6"/>
    <path d="M22 45c0-9 5-15 13-20 8 5 13 11 13 20zM80 45c0-9 5-15 13-20 8 5 13 11 13 20z" fill="#c8dadd"/>
    <path d="M28 24c2-6 4-9 7-13 3 4 5 7 7 13M86 24c2-6 4-9 7-13 3 4 5 7 7 13" fill="#c8dadd"/>
    <path d="M46 62h36v43H46z" fill="#fff3d6"/>
    <path d="M43 62 64 48l21 14" fill="#c8dadd"/>
    <path d="M53 105V80h22v25" fill="#ff746d"/>
    <path d="M59 105V86c0-5 2-8 5-8s5 3 5 8v19" fill="#fff3d6"/>
    <g fill="#ff746d" stroke-width="1.5">
      <rect x="30" y="54" width="10" height="8" rx="1"/><rect x="30" y="69" width="10" height="8" rx="1"/>
      <rect x="88" y="54" width="10" height="8" rx="1"/><rect x="88" y="69" width="10" height="8" rx="1"/>
    </g>
    <circle cx="64" cy="68" r="5" fill="#11c7dc" stroke-width="1.7"/>
    <path d="M17 106h94" fill="none"/>
  </g>
</svg>
